<mxfile host="app.diagrams.net" modified="2021-10-12T06:53:30.379Z" agent="5.0 (Windows NT 10.0; Win64; x64) AppleWebKit/537.36 (KHTML, like Gecko) Chrome/94.0.4606.81 Safari/537.36" etag="C8tUZvbFAqFd4-O2FpS1" version="15.5.1" type="github">
  <diagram id="PXhhxOYRwuz2wWuSH9B7" name="Page-1">
    <mxGraphModel dx="981" dy="494" grid="1" gridSize="10" guides="1" tooltips="1" connect="1" arrows="1" fold="1" page="1" pageScale="1" pageWidth="827" pageHeight="1169" math="0" shadow="0">
      <root>
        <mxCell id="0" />
        <mxCell id="1" parent="0" />
        <mxCell id="QvYmRV-MEaqQwZsYvnAX-3" value="" style="edgeStyle=orthogonalEdgeStyle;rounded=0;orthogonalLoop=1;jettySize=auto;html=1;" edge="1" parent="1" source="QvYmRV-MEaqQwZsYvnAX-1" target="QvYmRV-MEaqQwZsYvnAX-2">
          <mxGeometry relative="1" as="geometry" />
        </mxCell>
        <mxCell id="QvYmRV-MEaqQwZsYvnAX-1" value="obs_output_start" style="rounded=1;whiteSpace=wrap;html=1;" vertex="1" parent="1">
          <mxGeometry x="170" y="280" width="250" height="30" as="geometry" />
        </mxCell>
        <mxCell id="QvYmRV-MEaqQwZsYvnAX-5" value="" style="edgeStyle=orthogonalEdgeStyle;rounded=0;orthogonalLoop=1;jettySize=auto;html=1;" edge="1" parent="1" source="QvYmRV-MEaqQwZsYvnAX-2" target="QvYmRV-MEaqQwZsYvnAX-4">
          <mxGeometry relative="1" as="geometry" />
        </mxCell>
        <mxCell id="QvYmRV-MEaqQwZsYvnAX-2" value="obs_service_initialize(output-&amp;gt;service, output)" style="whiteSpace=wrap;html=1;rounded=1;" vertex="1" parent="1">
          <mxGeometry x="170" y="375" width="250" height="35" as="geometry" />
        </mxCell>
        <mxCell id="QvYmRV-MEaqQwZsYvnAX-7" value="" style="edgeStyle=orthogonalEdgeStyle;rounded=0;orthogonalLoop=1;jettySize=auto;html=1;" edge="1" parent="1" source="QvYmRV-MEaqQwZsYvnAX-4" target="QvYmRV-MEaqQwZsYvnAX-6">
          <mxGeometry relative="1" as="geometry" />
        </mxCell>
        <mxCell id="QvYmRV-MEaqQwZsYvnAX-4" value="obs_output_delay_start(output)" style="whiteSpace=wrap;html=1;rounded=1;" vertex="1" parent="1">
          <mxGeometry x="170" y="477.5" width="250" height="60" as="geometry" />
        </mxCell>
        <mxCell id="QvYmRV-MEaqQwZsYvnAX-9" value="" style="edgeStyle=orthogonalEdgeStyle;rounded=0;orthogonalLoop=1;jettySize=auto;html=1;" edge="1" parent="1" source="QvYmRV-MEaqQwZsYvnAX-6" target="QvYmRV-MEaqQwZsYvnAX-8">
          <mxGeometry relative="1" as="geometry" />
        </mxCell>
        <mxCell id="QvYmRV-MEaqQwZsYvnAX-6" value="obs_output_actual_start(output)" style="whiteSpace=wrap;html=1;rounded=1;" vertex="1" parent="1">
          <mxGeometry x="170" y="617.5" width="250" height="60" as="geometry" />
        </mxCell>
        <mxCell id="QvYmRV-MEaqQwZsYvnAX-8" value="do_output_signal(output, &quot;starting&quot;)" style="whiteSpace=wrap;html=1;rounded=1;" vertex="1" parent="1">
          <mxGeometry x="170" y="757.5" width="250" height="60" as="geometry" />
        </mxCell>
      </root>
    </mxGraphModel>
  </diagram>
</mxfile>
